{"title":"Helix S01E04 HDTV x264 AAC [GWC].mp4","uid":9521401,"size":109701336,"categoryP":"video","categoryS":"tv_shows","magnet":"?xt=urn:btih:36e6e89745d3c0be722fc11e9a9a2f793c307b02&amp;dn=Helix+S01E04+HDTV+x264+AAC+%5BGWC%5D.mp4&amp;tr=udp%3A%2F%2Ftracker.openbittorrent.com%3A80&amp;tr=udp%3A%2F%2Fopen.demonii.com%3A1337&amp;tr=udp%3A%2F%2Ftracker.coppersurfer.tk%3A6969&amp;tr=udp%3A%2F%2Fexodus.desync.com%3A6969","seeders":1,"leechers":0,"uploader":"canc232","files":1,"time":1390643328,"description":"Helix S01E04 HDTV x264 AAC [GWC] \n\n\nSCREENS : &lt;a href=&quot;\nhttp://imageshack.com/a/img138/6996/dr5e.jpg&quot; rel=&quot;nofollow&quot; target=&quot;_NEW&quot;&gt;\nhttp://imageshack.com/a/img138/6996/dr5e.jpg&lt;/a&gt; &lt;a href=&quot;\nhttp://imageshack.com/a/img15/8894/g5dj.jpg&quot; rel=&quot;nofollow&quot; target=&quot;_NEW&quot;&gt;\nhttp://imageshack.com/a/img15/8894/g5dj.jpg&lt;/a&gt; &lt;a href=&quot;\nhttp://imageshack.com/a/img826/4710/vuak.jpg&quot; rel=&quot;nofollow&quot; target=&quot;_NEW&quot;&gt;\nhttp://imageshack.com/a/img826/4710/vuak.jpg&lt;/a&gt;\n\n\nMEDIA INFO :\nGeneral \nFormat : MPEG-4 \nFormat profile : Base Media \nFile size : 105 MiB \nDuration : 42mn 56s \nOverall bit rate : 341 Kbps \n\nVideo \nFormat : AVC \nFormat profile : &lt;a class=&quot;__cf_email__&quot; href=&quot;/cdn-cgi/l/email-protection&quot; data-cfemail=&quot;4800212f2008047b6678&quot;&gt;[email&amp;#160;protected]&lt;/a&gt;&lt;script cf-hash='f9e31' type=&quot;text/javascript&quot;&gt;\n/* &lt;![CDATA[ */!function(){try{var t=&quot;currentScript&quot;in document?document.currentScript:function(){for(var t=document.getElementsByTagName(&quot;script&quot;),e=t.length;e--;)if(t[e].getAttribute(&quot;cf-hash&quot;))return t[e]}();if(t&amp;&amp;t.previousSibling){var e,r,n,i,c=t.previousSibling,a=c.getAttribute(&quot;data-cfemail&quot;);if(a){for(e=&quot;&quot;,r=parseInt(a.substr(0,2),16),n=2;a.length-n;n+=2)i=parseInt(a.substr(n,2),16)^r,e+=String.fromCharCode(i);e=document.createTextNode(e),c.parentNode.replaceChild(e,c)}}}catch(u){}}();/* ]]&gt; */&lt;/script&gt; \nFormat settings, CABAC : Yes \nFormat settings, ReFrames : 4 frames \nDuration : 42mn 56s \nBit rate : 277 Kbps \nMaximum bit rate : 1 189 Kbps \nWidth : 720 pixels \nHeight : 404 pixels \nDisplay aspect ratio : 16:9 \nFrame rate : 23.976 fps \nStream size : 85.2 MiB (81%) \nTitle : Helix S01E04 HDTV x264 AAC [GWC] \nWriting library : x264 core \n\nAudio \nFormat : AAC \nFormat profile : HE-AAC / LC \nDuration : 42mn 56s \nBit rate mode : Variable \nChannel(s) : 2 channels \nSampling rate : 48.0 KHz / 24.0 KHz \nStream size : 18.4 MiB (18%) \nLanguage : English ","torrent":{"xt":"urn:btih:36e6e89745d3c0be722fc11e9a9a2f793c307b02","amp;dn":"Helix+S01E04+HDTV+x264+AAC+%5BGWC%5D.mp4","amp;tr":["udp%3A%2F%2Ftracker.openbittorrent.com%3A80","udp%3A%2F%2Fopen.demonii.com%3A1337","udp%3A%2F%2Ftracker.coppersurfer.tk%3A6969","udp%3A%2F%2Fexodus.desync.com%3A6969"],"infoHash":"36e6e89745d3c0be722fc11e9a9a2f793c307b02","infoHashBuffer":{"type":"Buffer","data":[54,230,232,151,69,211,192,190,114,47,193,30,154,154,47,121,60,48,123,2]},"announce":[],"urlList":[]}}